<?xml version="1.0" encoding="utf-8"?>
<!-- Generator: Adobe Illustrator 16.0.2, SVG Export Plug-In . SVG Version: 6.00 Build 0)  -->
<!DOCTYPE svg PUBLIC "-//W3C//DTD SVG 1.1//EN" "http://www.w3.org/Graphics/SVG/1.1/DTD/svg11.dtd">
<svg version="1.1" id="Слой_1" xmlns="http://www.w3.org/2000/svg" xmlns:xlink="http://www.w3.org/1999/xlink" x="0px" y="0px"
	 width="132.071px" height="137.092px" viewBox="0 0 132.071 137.092" enable-background="new 0 0 132.071 137.092"
	 xml:space="preserve">
<polygon fill="#8B5E3C" points="30.998,40.434 30.998,137.092 71.047,137.092 71.047,40.434 99.553,40.434 99.553,7.125 "/>
<polygon fill="#8B5E3C" points="38.632,7.307 7.768,137.092 58.407,137.092 71.047,81.749 71.047,43.995 71.047,40.434 
	80.48,40.434 88.049,7.307 "/>
<g>
	<defs>
		<rect id="SVGID_1_" width="132.071" height="137.092"/>
	</defs>
	<clipPath id="SVGID_2_">
		<use xlink:href="#SVGID_1_"  overflow="visible"/>
	</clipPath>
	<path clip-path="url(#SVGID_2_)" fill="#E8E8E8" d="M41.531,7.125v8.135c2.322,10.687,9.027,19.738,18.143,25.174h39.878
		c11.352-6.772,18.967-19.149,19.031-33.309H41.531z"/>
	<path clip-path="url(#SVGID_2_)" fill="#231F20" d="M117.5,16.115c0.693-2.887,1.068-5.895,1.084-8.99h-8.18
		C112.32,10.463,114.719,13.49,117.5,16.115"/>
	<polygon clip-path="url(#SVGID_2_)" fill="#FF6666" points="71.047,48.996 28.719,48.996 30.701,40.433 71.047,40.433 	"/>
	<polygon clip-path="url(#SVGID_2_)" fill="#C49A6C" points="38.623,7.125 30.701,40.434 71.047,40.434 80.439,40.434 88.039,7.125 
			"/>
	<path clip-path="url(#SVGID_2_)" fill="#603913" d="M34.35,0v20.918c0,9.207,7.465,16.672,16.672,16.672
		c9.205,0,16.67-7.465,16.67-16.672V0H34.35z"/>
	<path clip-path="url(#SVGID_2_)" fill="#231F20" d="M72.826,15.877c0,1.611,1.307,2.916,2.916,2.916
		c1.611,0,2.918-1.305,2.918-2.916s-1.307-2.916-2.918-2.916C74.133,12.961,72.826,14.266,72.826,15.877"/>
	<polygon clip-path="url(#SVGID_2_)" fill="#FFFFFF" points="65.656,137.092 80.439,137.092 65.656,106.098 	"/>
	<polygon clip-path="url(#SVGID_2_)" fill="#8B5E3C" points="27.164,137.088 17.762,124.287 0,120.236 7.768,137.088 	"/>
	<path clip-path="url(#SVGID_2_)" fill="#603913" d="M7.768,137.092h50.574c-0.187-23.703-16.808-43.49-39.035-48.525L7.768,137.092
		z"/>
	<polygon clip-path="url(#SVGID_2_)" fill="#FF6666" points="101.625,99.133 106.363,94.35 100.055,92.697 	"/>
	<polyline clip-path="url(#SVGID_2_)" fill="#E6E7E8" points="97.78,56.791 113.527,105.052 85.346,84.035 95.734,56.791 	"/>
	<polygon clip-path="url(#SVGID_2_)" fill="#6D6E71" points="107.46,56.794 107.469,41.627 95.729,56.792 	"/>
	<path clip-path="url(#SVGID_2_)" fill="#E6E7E8" d="M85.487,84.069l8.695,53H51.064l5.361-25.118
		c1.893-8.872,7.608-16.456,15.616-20.721L85.487,84.069"/>
	<path clip-path="url(#SVGID_2_)" fill="#E6E7E8" d="M115.061,126.552v0.014c2.774,0.135,4.984,2.42,4.984,5.228
		c0,2.809-2.21,5.094-4.984,5.229v0.013H92.393v-10.483H115.061z"/>
	<path clip-path="url(#SVGID_2_)" fill="#E6E7E8" d="M107.46,56.794l10,1.73c2.153,0.502,3.946,1.987,4.842,4.009l3.175,7.174
		l6.595,3.57l-2.856,8.566c-1.07,3.213-4.077,5.381-7.465,5.381h-7.897l-0.324,8.053L92.394,82.076l4.854-25.289L107.46,56.794z"/>
	<polygon clip-path="url(#SVGID_2_)" fill="#E6E7E8" points="113.479,94.123 85.346,84.035 63.641,137.035 113.479,137.035 	"/>
	<path clip-path="url(#SVGID_2_)" fill="#231F20" d="M117,67.606c0,1.344,1.09,2.435,2.436,2.435c1.344,0,2.434-1.091,2.434-2.435
		c0-1.344-1.09-2.435-2.434-2.435C118.09,65.171,117,66.262,117,67.606"/>
	<path clip-path="url(#SVGID_2_)" fill="#E6E7E8" d="M64.722,137.092c0.057-2.031-0.605-4.082-2.029-5.323
		c-1.153-1.003-2.256-2.072-3.3-3.236c-0.133-0.148-0.261-0.304-0.39-0.458c-0.072-0.089-0.141-0.177-0.189-0.239
		c-0.462-0.614-0.891-1.263-1.303-1.926c-0.334-0.533-0.963-1.716-0.979-1.747c-0.051-0.12-2.57-3.843-2.614-9.74
		c-0.008-1.217,0.752-15.377,0.426-20.436c-0.406-6.286-2.024-9.977-5.647-14.419c-1.045-1.281-2.307-2.285-3.414-3.435
		c-5.863-6.089-13.577-0.423-7.001,7.144c0.852,0.98,3.099,3.164,3.985,4.162c0.026,0.029,0.056,0.064,0.088,0.102
		c0.081,0.109,0.161,0.22,0.241,0.329c0.386,0.533,0.737,1.101,1.073,1.681c0.103,0.177,0.28,0.537,0.42,0.826
		c0.115,0.291,0.226,0.586,0.331,0.884c0.174,0.494,0.319,1.001,0.455,1.512c0.012,0.047,0.023,0.096,0.035,0.144
		c0.013,0.066,0.025,0.132,0.034,0.187c0.171,1.032,0.258,2.082,0.308,3.132c0.021,0.457,0.027,0.916,0.029,1.373
		c-0.008,0.197-0.013,0.396-0.023,0.592c-0.108,2.289-0.372,4.564-0.624,6.836c-0.567,5.106-1.082,10.362-0.454,15.495
		c0.793,6.475,3.318,11.856,6.93,16.563H64.722z M56.294,123.667C56.237,123.546,56.219,123.504,56.294,123.667 M54.821,114.438
		C54.825,113.969,54.846,113.295,54.821,114.438 M42.729,87.993C42.743,88.013,42.745,88.014,42.729,87.993 M44.85,92.611
		C44.692,91.905,44.767,92.207,44.85,92.611 M45.283,97.837C45.283,98.305,45.251,99.219,45.283,97.837"/>
	<polygon clip-path="url(#SVGID_2_)" fill="#FF6666" points="130.614,77.654 129.341,73.681 128.615,71.415 132.071,73.284 	"/>
	<polygon clip-path="url(#SVGID_2_)" fill="#66B6FF" points="113.674,92.743 87.33,78.831 85.346,84.035 113.471,98.926 	"/>
	<path clip-path="url(#SVGID_2_)" fill="#FFED43" d="M117,99.197c0,1.918-1.555,3.472-3.473,3.472s-3.473-1.554-3.473-3.472
		c0-1.919,1.555-3.473,3.473-3.473S117,97.278,117,99.197"/>
	<path clip-path="url(#SVGID_2_)" fill="#6D6E71" d="M51.064,137.035h38.06c-0.135-17.794-11.357-32.802-26.75-37.734
		c-3.466,4.26-5.133,9.064-5.814,12.052L51.064,137.035z"/>
</g>
</svg>
